HIERARCHY
ROOT Hips
{
	OFFSET 0.00000 0.00000 0.00000
	CHANNELS 6 Xposition Yposition Zposition Zrotation Yrotation Xrotation 
	JOINT LHipJoint
	{
		OFFSET 0 0 0
		CHANNELS 3 Zrotation Yrotation Xrotation
		JOINT LeftHip
		{
			OFFSET 1.28858 -1.83292 1.03970
			CHANNELS 3 Zrotation Yrotation Xrotation
			JOINT LeftKnee
			{
				OFFSET 2.47846 -6.80952 0.00000
				CHANNELS 3 Zrotation Yrotation Xrotation
				JOINT LeftAnkle
				{
					OFFSET 2.75274 -7.56311 0.00000
					CHANNELS 3 Zrotation Yrotation Xrotation
					JOINT LeftToe
					{
						OFFSET 0.12848 -0.35301 1.68223
						CHANNELS 3 Zrotation Yrotation Xrotation
						End Site
						{
							OFFSET 0.00000 -0.00000 0.87311
						}
					}
				}
			}
		}
	}
	JOINT RHipJoint
	{
		OFFSET 0 0 0
		CHANNELS 3 Zrotation Yrotation Xrotation
		JOINT RightHip
		{
			OFFSET -1.31183 -1.83292 1.03970
			CHANNELS 3 Zrotation Yrotation Xrotation
			JOINT RightKnee
			{
				OFFSET -2.44740 -6.72417 0.00000
				CHANNELS 3 Zrotation Yrotation Xrotation
				JOINT RightAnkle
				{
					OFFSET -2.67343 -7.34519 0.00000
					CHANNELS 3 Zrotation Yrotation Xrotation
					JOINT RightToe
					{
						OFFSET -0.16914 -0.46471 1.77626
						CHANNELS 3 Zrotation Yrotation Xrotation
						End Site
						{
							OFFSET -0.00000 -0.00000 0.92777
						}
					}
				}
			}
		}
	}
	JOINT lowerback
	{
		OFFSET 0 0 0
		CHANNELS 3 Zrotation Yrotation Xrotation
		JOINT Chest
		{
			OFFSET 0.01249 2.14252 0.03842
			CHANNELS 3 Zrotation Yrotation Xrotation
			JOINT Chest2
			{
				OFFSET -0.02957 2.14199 -0.03751
				CHANNELS 3 Zrotation Yrotation Xrotation
				JOINT lowerneck
				{
					OFFSET 0 0 0
					CHANNELS 3 Zrotation Yrotation Xrotation
					JOINT Neck
					{
						OFFSET -0.01678 1.65709 -0.05476
						CHANNELS 3 Zrotation Yrotation Xrotation
						JOINT Head
						{
							OFFSET 0.07912 1.58331 -0.11843
							CHANNELS 3 Zrotation Yrotation Xrotation
							End Site
							{
								OFFSET 0.03298 1.73940 -0.04271
							}
						}
					}
				}
				JOINT LeftCollar
				{
					OFFSET 0 0 0
					CHANNELS 3 Zrotation Yrotation Xrotation
					JOINT LeftShoulder
					{
						OFFSET 3.39556 1.16496 0.08673
CHANNELS 3 Zrotation Xrotation Yrotation
						JOINT LeftElbow
						{
OFFSET 0 -5.239100 -0.000000
CHANNELS 3 Zrotation Xrotation Yrotation
							JOINT LeftWrist
							{
OFFSET 0 -3.314670 0.000000
CHANNELS 3 Zrotation Xrotation Yrotation
								JOINT lhand
								{
									OFFSET 0 0 0
CHANNELS 3 Zrotation Xrotation Yrotation
									JOINT LFingers
									{
OFFSET 0 -0.965900 0.000000
CHANNELS 3 Zrotation Xrotation Yrotation
										End Site
										{
OFFSET 0 -0.778730 0.000000
										}
									}
								}
								JOINT LThumb
								{
OFFSET 0 0.000000 0.000000
CHANNELS 3 Zrotation Xrotation Yrotation
									End Site
									{
OFFSET 0 -0.790620 0.790620
									}
								}
							}
						}
					}
				}
				JOINT RightCollar
				{
					OFFSET 0 0 0
					CHANNELS 3 Zrotation Yrotation Xrotation
					JOINT RightShoulder
					{
						OFFSET -3.27193 1.31331 0.33940
CHANNELS 3 Zrotation Xrotation Yrotation
						JOINT RightElbow
						{
OFFSET 0 -5.302520 0.000000
CHANNELS 3 Zrotation Xrotation Yrotation
							JOINT RightWrist
							{
OFFSET 0 -3.678750 0.000000
CHANNELS 3 Zrotation Xrotation Yrotation
								JOINT rhand
								{
									OFFSET 0 0 0
CHANNELS 3 Zrotation Xrotation Yrotation
									JOINT RFingers
									{
OFFSET 0 -0.594810 0.000000
CHANNELS 3 Zrotation Xrotation Yrotation
										End Site
										{
OFFSET 0 -0.479550 0.000000
										}
									}
								}
								JOINT RThumb
								{
OFFSET 0 0.000000 0.000000
CHANNELS 3 Zrotation Xrotation Yrotation
									End Site
									{
OFFSET 0 -0.486870 0.486870
									}
								}
							}
						}
					}
				}
			}
		}
	}
}
MOTION
Frames: 7
Frame Time: 0.008333333333333333
6.148936 26.976896 -6.137385 3.856200 3.248061 1.294559 0.000000 0.000000 0.000000 -17.813843 -10.250817 -31.328234 2.629503 10.069533 29.202249 -0.386714 -11.049749 5.691434 2.106171 9.082175 26.054014 0.000000 0.000000 0.000000 14.548624 -0.543655 -22.280418 -1.632042 -8.053407 22.876438 -1.890469 -0.713636 -26.279439 -1.643984 8.081473 -22.961793 3.739793 0.664826 8.850376 0.906096 1.238968 2.559679 -1.295682 0.610808 -2.246137 0.431248 -3.659365 0.678902 -0.829835 -4.839343 19.916564 -0.562057 -2.348598 5.875036 0.000000 0.000000 0.000000 21.740978 -8.293959 -30.380694 23.948658 -35.109506 7.677133 22.275944 -8.424171 31.232504 0.000000 0.000000 0.000000 -7.125000 0.000000 0.000000 -5.225701 -3.134009 -5.526126 0.000000 0.000000 0.000000 -8.224313 -1.685346 16.391250 -32.659487 -43.065709 -13.189310 -14.179714 9.888451 12.899639 0.000000 0.000000 0.000000 7.125000 0.000000 0.000000 11.884926 42.955063 0.608937
6.140271 27.004332 -5.959480 3.505255 3.647083 1.237181 0.000000 0.000000 0.000000 -17.330057 -9.783180 -31.539728 2.707117 10.204875 29.642919 -0.411420 -11.553706 6.916458 2.347742 9.554370 27.546414 0.000000 0.000000 0.000000 14.910631 -0.741090 -22.272882 -1.641678 -8.076012 22.945221 -1.816374 -1.129626 -25.913781 -1.591585 7.957221 -22.584514 4.235566 0.688211 8.789849 1.081775 1.321519 2.377540 -1.401225 0.645670 -2.389413 0.489004 -3.757027 0.784405 -0.882103 -4.963295 19.888424 -0.590875 -2.407229 5.844760 0.000000 0.000000 0.000000 20.875851 -7.595492 -29.629166 23.427202 -34.551982 7.379454 22.136900 -8.524265 30.560038 0.000000 0.000000 0.000000 -7.125000 0.000000 0.000000 -5.208251 -2.415858 -5.445505 0.000000 0.000000 0.000000 -7.713241 -0.033170 15.895156 -31.686362 -42.293559 -12.530014 -14.570240 10.205460 12.766400 0.000000 0.000000 0.000000 7.125000 0.000000 0.000000 11.506534 42.861344 0.615996
6.134961 27.039380 -5.781857 3.174758 3.889987 1.207414 0.000000 0.000000 0.000000 -16.847987 -9.436818 -31.660472 2.799267 10.362622 30.159503 -0.434294 -11.981382 7.695982 2.469067 9.781259 28.271433 0.000000 0.000000 0.000000 15.203751 -0.921383 -22.341387 -1.663564 -8.127098 23.100736 -1.732299 -1.424474 -25.428168 -1.475248 7.674065 -21.728711 4.684255 0.711761 8.662738 1.223024 1.394212 2.233180 -1.512957 0.676867 -2.456911 0.489430 -3.782722 0.774677 -0.806070 -5.010376 19.897814 -0.569537 -2.424143 5.851298 0.000000 0.000000 0.000000 20.072488 -6.823817 -28.675607 22.935758 -34.018064 7.102485 22.269103 -9.082965 29.627207 0.000000 0.000000 0.000000 -7.125000 0.000000 0.000000 -5.001794 -1.485697 -5.149704 0.000000 0.000000 0.000000 -7.224000 1.395592 15.542203 -30.627538 -41.423382 -11.823296 -14.786683 10.674731 12.735487 0.000000 0.000000 0.000000 7.125000 0.000000 0.000000 11.307453 42.852559 0.607591
6.130879 27.082143 -5.603359 2.977031 4.032873 1.183614 0.000000 0.000000 0.000000 -16.515849 -9.245550 -31.627604 2.914654 10.555414 30.794868 -0.468647 -12.409465 7.868325 2.472648 9.787865 28.292502 0.000000 0.000000 0.000000 15.290876 -1.062303 -22.317761 -1.669533 -8.140897 23.142743 -1.636721 -1.737166 -24.856629 -1.347720 7.349221 -20.754394 4.944773 0.726036 8.476723 1.308357 1.430476 2.138966 -1.571519 0.692732 -2.444781 0.399178 -3.794742 0.760869 -0.557185 -5.064296 19.876599 -0.479157 -2.439893 5.856187 0.000000 0.000000 0.000000 19.316219 -5.991202 -27.528187 22.463625 -33.496805 6.840002 22.666394 -10.021845 28.445157 0.000000 0.000000 0.000000 -7.125000 0.000000 0.000000 -4.610331 -0.348246 -4.653791 0.000000 0.000000 0.000000 -6.775463 2.555463 15.307459 -29.419359 -40.389134 -11.031903 -14.728064 11.278795 12.775341 0.000000 0.000000 0.000000 7.125000 0.000000 0.000000 11.369013 42.886641 0.601260
6.125275 27.130219 -5.425041 2.973448 4.165956 1.123797 0.000000 0.000000 0.000000 -16.437389 -9.211793 -31.391006 3.061467 10.793230 31.586307 -0.515719 -12.836590 7.345951 2.368375 9.593775 27.671577 0.000000 0.000000 0.000000 15.092117 -1.141036 -22.065613 -1.638564 -8.068625 22.922866 -1.523017 -2.281232 -24.233036 -1.258322 7.110791 -20.044124 4.937208 0.704133 8.274380 1.325312 1.390071 2.099053 -1.542281 0.673740 -2.377031 0.292186 -3.821798 0.700736 -0.233431 -5.152678 19.907537 -0.365999 -2.468281 5.888088 0.000000 0.000000 0.000000 18.601154 -5.119306 -26.205239 21.990379 -32.965454 6.580894 23.271186 -11.221915 27.025425 0.000000 0.000000 0.000000 -7.125000 0.000000 0.000000 -4.066222 1.003648 -4.006656 0.000000 0.000000 0.000000 -6.368423 3.469689 15.182420 -28.074749 -39.180526 -10.172576 -14.313871 11.955431 12.834918 0.000000 0.000000 0.000000 7.125000 0.000000 0.000000 11.750157 42.903821 0.616941
6.116591 27.179969 -5.249073 3.084754 4.354096 1.019840 0.000000 0.000000 0.000000 -16.526661 -9.283852 -30.991102 3.235174 11.065624 32.502320 -0.560585 -13.199234 6.311301 2.199517 9.268735 26.640415 0.000000 0.000000 0.000000 14.705315 -1.144611 -21.601549 -1.574299 -7.916183 22.459924 -1.388157 -3.124598 -23.574603 -1.213699 6.988362 -19.681026 4.755092 0.639709 8.086276 1.295478 1.277247 2.093540 -1.456958 0.620278 -2.288922 0.239977 -3.894915 0.728052 0.026138 -5.294547 19.874365 -0.281673 -2.524040 5.881892 0.000000 0.000000 0.000000 17.925062 -4.297932 -24.767848 21.447107 -32.345726 6.287786 24.019467 -12.519953 25.491381 0.000000 0.000000 0.000000 -7.125000 0.000000 0.000000 -3.421205 2.459545 -3.279269 0.000000 0.000000 0.000000 -5.988012 4.233356 15.130970 -26.666110 -37.854842 -9.295054 -13.649726 12.608565 12.873938 0.000000 0.000000 0.000000 7.125000 0.000000 0.000000 12.346824 42.874678 0.658443
6.105851 27.229678 -5.076202 3.206583 4.581299 0.889124 0.000000 0.000000 0.000000 -16.650774 -9.424895 -30.458109 3.424815 11.352825 33.479469 -0.588070 -13.437643 4.964001 2.038159 8.945011 25.623510 0.000000 0.000000 0.000000 14.254495 -1.056718 -20.976585 -1.484875 -7.698814 21.802822 -1.231859 -4.198482 -22.861936 -1.196060 6.939247 -19.535577 4.518343 0.544237 7.904113 1.247481 1.118889 2.101853 -1.356038 0.544639 -2.192619 0.226891 -3.988955 0.896365 0.236857 -5.455813 19.762981 -0.215740 -2.591303 5.825034 0.000000 0.000000 0.000000 17.287156 -3.553957 -23.250366 20.807009 -31.602249 5.948559 24.831505 -13.800423 23.954376 0.000000 0.000000 0.000000 -7.125000 0.000000 0.000000 -2.734973 3.922239 -2.544636 0.000000 0.000000 0.000000 -5.646198 4.897976 15.154631 -25.237451 -36.445299 -8.430685 -12.889679 13.137779 12.832683 0.000000 0.000000 0.000000 7.125000 0.000000 0.000000 13.006422 42.755953 0.733638
